<?xml version="1.0" standalone="no"?>
<!DOCTYPE svg PUBLIC "-//W3C//DTD SVG 20010904//EN"
 "http://www.w3.org/TR/2001/REC-SVG-20010904/DTD/svg10.dtd">
<svg version="1.0" xmlns="http://www.w3.org/2000/svg"
 width="612.000000pt" height="408.000000pt" viewBox="0 0 612.000000 408.000000"
 preserveAspectRatio="xMidYMid meet">

<g transform="translate(0.000000,408.000000) scale(0.100000,-0.100000)"
fill="#000000" stroke="none">
<path d="M0 3710 c0 -206 4 -370 9 -370 5 0 14 7 21 15 11 13 192 75 354 121
59 16 60 16 77 -5 13 -15 15 -29 10 -54 -18 -77 -59 -115 -163 -147 -40 -13
-77 -27 -82 -32 -6 -4 -18 -8 -27 -8 -10 0 -24 -6 -31 -12 -7 -7 -31 -19 -53
-27 -22 -7 -57 -21 -78 -30 l-37 -16 0 -172 c0 -165 1 -173 19 -173 11 0 22 4
25 9 4 5 31 17 61 26 31 10 55 24 55 31 0 10 13 14 40 14 29 0 40 4 40 15 0
24 19 17 26 -10 8 -31 -3 -78 -16 -70 -6 3 -10 -4 -10 -16 0 -22 -1 -22 -120
-16 l-120 7 0 -1395 0 -1395 1775 0 c1413 0 1775 3 1775 13 0 6 -10 28 -22 47
-12 19 -27 51 -34 70 -13 40 -44 60 -91 60 -34 0 -53 -17 -33 -30 8 -5 10 -15
5 -26 -7 -18 -8 -18 -15 1 -22 67 -33 86 -41 74 -6 -10 -10 -9 -15 5 -4 11 -2
21 6 26 9 5 7 11 -8 22 -12 8 -33 42 -48 76 -15 34 -32 62 -40 62 -7 0 -27 14
-44 32 -27 27 -34 43 -42 102 -9 70 -29 129 -48 141 -6 3 -10 16 -10 28 0 25
-35 61 -50 52 -18 -11 -10 -46 15 -69 23 -21 28 -42 35 -138 0 -4 12 -14 28
-22 23 -12 25 -15 10 -21 -10 -4 -18 -16 -18 -27 0 -30 -19 -58 -39 -58 -21 0
-91 67 -91 87 0 7 -6 13 -14 13 -8 0 -18 9 -21 20 -8 24 -18 25 -35 5 -7 -8
-18 -15 -26 -15 -7 0 -23 -5 -36 -11 -20 -9 -24 -18 -25 -67 -2 -81 -24 -128
-63 -134 -36 -5 -42 1 -66 70 -22 62 -49 68 -49 12 0 -19 -5 -43 -11 -53 -10
-17 -13 -16 -72 5 -34 12 -62 27 -62 34 0 11 -21 24 -41 24 -5 0 -9 -6 -9 -14
0 -33 -26 -28 -63 12 -7 7 -20 22 -29 32 -21 24 -52 114 -41 117 20 7 -18 203
-39 203 -20 0 -37 35 -38 78 0 37 3 42 23 42 13 0 27 4 33 9 10 11 38 -6 45
-27 3 -10 10 -8 24 8 19 21 19 21 -3 27 -12 3 -22 9 -22 14 0 5 -7 6 -16 2
-29 -11 -63 45 -64 107 -1 31 -4 47 -8 38 -5 -13 -11 -15 -22 -8 -28 18 -33
10 -27 -49 3 -42 1 -65 -9 -78 -19 -25 -17 -32 5 -26 10 3 22 0 25 -6 5 -7 -2
-11 -17 -11 -20 0 -26 -6 -31 -35 -4 -20 -4 -40 -1 -45 3 -5 1 -19 -6 -32 -11
-21 -12 -21 -25 -3 -13 17 -15 16 -29 -18 -8 -20 -15 -52 -15 -72 0 -19 -5
-35 -11 -35 -7 0 -10 17 -7 45 3 42 1 45 -27 57 -16 6 -33 16 -36 21 -4 5 -29
10 -55 11 -45 1 -49 -1 -46 -21 4 -29 -13 -37 -42 -18 -23 15 -25 15 -35 -2
-9 -17 -12 -17 -38 -3 -21 12 -27 23 -28 52 -2 34 0 36 22 27 40 -15 46 -11
39 24 -4 17 -11 64 -17 102 -5 39 -16 87 -24 108 -8 20 -15 46 -15 57 0 11 -7
20 -15 20 -16 0 -20 49 -6 83 6 16 13 12 51 -32 25 -28 51 -51 58 -51 6 0 12
-4 12 -10 0 -5 7 -10 16 -10 9 0 23 -9 32 -20 10 -12 40 -25 74 -31 51 -10 59
-9 85 8 15 11 38 24 51 27 28 9 59 74 66 141 7 67 7 65 0 103 -5 27 -3 32 13
32 11 0 22 -2 25 -5 10 -10 148 -13 154 -4 10 16 56 9 86 -13 28 -20 31 -20
40 -4 7 13 17 16 35 11 14 -3 40 -1 59 5 18 6 39 8 46 4 7 -4 114 -8 238 -9
158 -1 232 -5 248 -13 17 -10 22 -10 22 -1 0 9 32 10 128 5 70 -4 143 -9 162
-12 19 -2 165 -6 325 -9 159 -4 296 -10 305 -14 8 -3 31 -5 50 -3 19 1 96 2
170 2 74 -1 142 -1 150 -1 8 1 190 3 404 6 324 4 393 3 411 -9 23 -15 98 -14
118 1 25 19 274 -1 342 -27 36 -14 45 -13 45 5 0 21 12 19 46 -7 84 -65 104
-103 59 -114 -14 -3 -25 -13 -25 -23 0 -9 -9 -22 -20 -29 -11 -7 -20 -23 -20
-37 0 -15 -6 -25 -15 -25 -15 0 -48 -62 -61 -115 -4 -16 -22 -44 -41 -61 -38
-36 -36 -52 8 -78 37 -22 32 -47 -16 -91 -21 -18 -38 -47 -46 -75 -7 -25 -16
-49 -20 -54 -5 -5 9 -26 31 -46 40 -37 40 -37 40 -111 0 -43 -5 -80 -11 -86
-9 -9 -3 -20 24 -45 31 -29 38 -32 53 -21 26 19 94 17 94 -2 0 -8 6 -15 13
-15 6 0 25 -9 41 -19 l29 -19 -39 -13 c-27 -9 -64 -39 -123 -101 l-85 -88 222
0 222 0 0 715 c0 577 -2 715 -13 715 -7 0 -40 -7 -72 -16 -53 -14 -117 -15
-540 -10 -802 11 -1014 16 -1410 31 -425 17 -458 20 -475 40 -17 20 -32 19
-52 -4 -19 -23 -38 -25 -343 -43 -248 -14 -596 -17 -790 -5 -205 12 -568 36
-710 47 -182 14 -215 13 -440 -15 -110 -14 -209 -25 -220 -25 -17 0 -17 2 5
18 24 17 22 17 -115 25 -77 4 -163 7 -191 7 -28 0 -67 7 -87 15 -20 8 -65 15
-99 15 -35 1 -97 5 -138 10 -41 6 -106 13 -145 16 -73 7 -105 24 -105 55 0 17
365 391 489 501 42 38 53 43 57 30 13 -38 28 -62 45 -67 10 -3 21 -15 24 -26
4 -10 11 -19 16 -19 5 0 9 -6 9 -14 0 -7 6 -19 13 -25 9 -7 13 -29 13 -58 -1
-27 1 -65 5 -85 3 -20 2 -41 -3 -46 -13 -13 34 -29 105 -37 31 -4 57 -10 57
-15 0 -4 37 -11 83 -15 45 -3 110 -11 144 -16 33 -5 144 -11 246 -14 130 -4
196 -10 220 -20 61 -25 381 -22 502 5 150 34 191 44 195 49 3 3 17 12 32 20
39 20 30 23 -32 11 -71 -13 -166 -13 -193 1 -43 23 -43 43 -2 59 50 19 86 118
61 168 -27 54 5 72 128 73 76 1 176 -20 201 -42 5 -5 17 -9 27 -9 10 0 18 -4
18 -9 0 -5 10 -7 22 -3 20 5 21 6 2 13 -30 13 -69 47 -62 55 4 4 19 -1 33 -10
28 -19 30 -16 13 17 -7 12 -14 23 -15 25 -1 2 -10 -1 -21 -7 -15 -8 -27 -7
-49 4 -15 8 -33 15 -40 15 -7 0 -16 6 -20 14 -6 11 -22 13 -71 9 -55 -5 -65
-9 -73 -29 -10 -29 -19 -30 -69 -4 -22 11 -48 20 -60 20 -11 0 -20 5 -20 11 0
6 9 9 20 6 25 -6 57 21 66 58 4 16 13 40 20 54 11 22 11 29 -1 46 -9 11 -26
37 -40 57 -30 45 -56 63 -115 78 -74 19 -131 40 -184 67 -85 43 -159 82 -193
103 -17 10 -49 21 -70 23 -21 2 -45 7 -54 11 -9 4 -20 6 -25 5 -23 -4 -45 2
-39 11 7 11 -52 43 -65 35 -13 -8 -13 -35 1 -35 6 0 3 -7 -6 -16 -15 -15 -17
-15 -34 0 -12 11 -16 26 -13 46 4 26 1 30 -21 30 -29 0 -50 22 -45 47 5 27 44
28 71 1 32 -32 99 -36 129 -8 13 12 35 20 56 20 18 0 42 5 53 10 26 14 82 -12
106 -50 28 -44 90 -89 114 -83 11 3 40 -5 67 -20 86 -46 225 -98 253 -95 19 2
36 -5 51 -20 38 -37 99 -74 153 -89 27 -8 56 -20 63 -25 22 -19 23 -1 1 36
-23 40 -22 41 16 24 19 -9 25 -19 25 -44 0 -42 26 -68 107 -105 74 -34 93 -36
93 -9 0 11 4 20 9 20 5 0 12 9 16 19 4 12 12 18 21 14 7 -3 14 -1 14 5 0 6 3
18 7 28 4 12 3 15 -5 10 -8 -5 -12 5 -12 33 0 47 46 113 62 89 6 -8 7 -3 3 17
-4 16 -12 33 -18 38 -9 5 -7 11 6 21 18 14 18 16 -7 37 -14 12 -23 26 -20 31
3 4 -2 11 -10 14 -9 3 -16 12 -16 20 0 8 -10 14 -25 14 -14 0 -25 5 -25 10 0
6 -6 10 -12 10 -7 0 -20 5 -28 10 -13 9 -13 11 0 19 12 9 12 11 -3 17 -27 10
-29 1 -16 -65 6 -33 8 -79 5 -103 -9 -58 -55 -123 -87 -124 -24 0 -119 24
-129 33 -3 2 11 17 30 33 34 28 35 31 33 93 -3 92 -10 119 -35 140 -36 28 -62
36 -107 30 -24 -3 -46 -1 -55 6 -7 6 -38 18 -67 27 -30 9 -71 27 -91 41 -24
16 -42 22 -50 16 -7 -4 -31 -8 -54 -8 -33 0 -40 3 -37 16 3 10 12 15 22 12 13
-3 21 8 34 50 10 30 24 61 33 68 11 9 61 12 192 10 206 -3 229 -9 326 -93 32
-29 107 -80 165 -114 195 -115 214 -135 215 -227 l1 -47 82 2 c72 3 84 1 97
-17 16 -21 17 -29 36 -205 7 -58 18 -127 26 -155 13 -48 24 -112 29 -166 1
-14 5 -31 8 -36 4 -6 4 -18 1 -27 -3 -9 -2 -16 3 -16 5 0 10 -16 11 -35 2 -19
4 -48 5 -65 1 -16 8 -30 14 -30 9 0 10 -7 3 -25 -8 -20 -6 -25 6 -25 11 0 14
-5 9 -17 -11 -30 -11 -38 4 -35 10 2 12 -5 8 -28 -5 -23 -3 -30 9 -30 11 0 14
-5 9 -17 -3 -10 -7 -20 -8 -23 -2 -6 8 -10 24 -10 5 0 7 4 4 10 -20 33 58 90
125 90 37 1 42 2 26 11 -26 16 -89 5 -125 -22 -37 -27 -50 -19 -27 15 20 31
68 57 107 58 31 1 35 21 5 26 -30 6 -64 -7 -101 -39 -43 -38 -52 -34 -22 9 31
44 94 68 140 53 41 -14 70 -42 49 -48 -8 -3 -5 -11 10 -24 20 -17 21 -21 7
-31 -14 -10 -13 -13 5 -33 25 -26 53 -38 61 -25 3 4 0 10 -6 12 -7 2 -13 13
-14 24 -2 19 -9 42 -25 79 -5 11 -32 90 -61 175 -57 170 -105 283 -93 220 3
-19 11 -40 16 -47 5 -7 7 -17 4 -22 -4 -5 -1 -13 5 -16 5 -4 8 -13 5 -20 -3
-8 2 -19 9 -25 24 -20 6 -33 -21 -16 -43 29 -103 15 -141 -32 -9 -11 -13 -12
-13 -3 0 7 14 26 31 42 23 22 41 29 71 29 23 0 37 4 33 10 -11 19 -72 10 -109
-15 -30 -20 -35 -21 -27 -7 15 28 36 43 83 57 43 14 43 14 10 14 -18 1 -46 -6
-62 -14 -17 -9 -30 -12 -30 -7 0 19 41 44 80 49 26 4 37 9 29 14 -15 9 -69 1
-84 -12 -5 -5 -16 -9 -24 -9 -26 0 17 37 57 49 36 10 35 10 -16 6 -61 -5 -61
9 1 26 23 6 36 14 28 17 -7 2 -31 -1 -52 -8 -46 -16 -60 -7 -33 20 13 13 35
20 67 21 43 2 47 4 41 23 -3 12 -11 26 -16 31 -6 6 -7 4 -3 -8 5 -12 2 -17 -9
-17 -9 0 -19 7 -22 15 -4 8 -18 15 -33 16 -25 1 -25 1 -3 7 28 8 29 27 2 26
-11 0 -20 3 -20 8 0 4 10 9 23 9 12 1 27 2 32 4 6 1 13 3 17 3 9 3 -25 110
-50 156 -36 66 -11 84 96 67 134 -21 573 -45 812 -44 135 0 376 3 535 6 377 8
518 9 695 3 184 -5 276 5 420 49 30 9 85 24 123 33 l67 17 0 57 c0 65 -4 68
-66 41 -31 -13 -90 -18 -279 -24 -138 -4 -287 -14 -350 -24 -96 -15 -124 -16
-224 -5 -119 13 -159 23 -274 63 -66 23 -127 68 -127 94 0 7 -4 13 -8 13 -4 0
-16 13 -25 30 -10 16 -23 35 -30 42 -7 7 -28 33 -47 58 -19 25 -37 47 -40 50
-3 3 -38 49 -78 103 -64 85 -76 97 -103 97 -24 0 -33 -6 -44 -32 -7 -18 -16
-55 -20 -83 -4 -27 -14 -57 -22 -66 -7 -9 -16 -28 -18 -41 -7 -36 28 -61 152
-108 111 -42 162 -75 191 -122 16 -26 16 -29 -4 -49 -20 -20 -25 -20 -210 -10
-104 6 -279 20 -389 32 -110 12 -229 21 -265 21 -39 -1 -89 6 -125 17 -42 13
-68 16 -89 10 -40 -12 -66 13 -88 83 -30 100 -60 203 -65 230 -9 45 25 58 172
64 105 4 133 8 155 24 18 13 53 22 101 26 41 4 81 10 89 14 8 4 33 10 55 14
31 5 37 4 25 -5 -12 -9 -11 -10 5 -4 127 43 197 62 260 70 28 4 70 16 94 26
35 15 64 19 131 17 75 -2 90 1 117 20 25 17 43 21 92 20 36 -1 66 3 73 10 13
13 68 14 104 4 12 -4 46 -28 75 -53 30 -25 81 -68 113 -94 106 -86 125 -119
79 -136 -15 -6 -36 -1 -70 17 -26 13 -53 24 -60 24 -6 0 -13 4 -15 8 -5 12
-74 52 -90 52 -8 0 -23 -6 -33 -14 -15 -11 -17 -17 -8 -28 9 -11 8 -16 -8 -26
-22 -14 -35 -9 -62 25 -10 13 -24 23 -32 23 -20 0 -39 -54 -26 -77 5 -11 7
-29 4 -41 -6 -25 61 -111 105 -133 15 -8 47 -26 72 -42 24 -15 78 -40 120 -56
73 -28 82 -29 322 -35 244 -6 248 -6 269 15 20 20 25 21 75 10 l54 -12 46 45
c27 27 55 46 68 46 33 0 56 46 49 99 -7 49 -29 63 -118 76 -69 10 -129 43
-219 119 -86 74 -123 96 -159 96 -14 0 -55 6 -93 14 -38 8 -98 19 -134 26 -36
6 -94 24 -130 40 -36 15 -84 33 -107 39 -24 7 -43 14 -43 16 0 2 4 15 10 29 8
22 16 26 50 26 22 0 67 -9 99 -20 50 -17 220 -58 314 -77 45 -9 33 20 -40 99
-38 40 -71 75 -74 78 -3 3 -8 13 -12 23 -11 30 35 20 94 -20 77 -53 125 -77
143 -70 12 5 16 0 16 -16 0 -17 2 -19 9 -8 7 11 11 4 17 -25 3 -21 17 -50 30
-64 12 -14 33 -36 46 -51 26 -29 97 -71 154 -92 21 -8 74 -29 117 -46 43 -17
83 -29 88 -25 26 15 7 75 -61 189 -78 131 -92 165 -66 165 27 0 68 -25 106
-65 19 -20 48 -46 64 -58 l29 -21 -5 65 c-4 40 -15 83 -32 115 -14 29 -26 67
-26 85 0 73 -62 130 -209 189 -42 17 -94 39 -116 49 -22 10 -65 26 -95 36 -57
19 -110 62 -110 89 0 15 -170 16 -1826 16 l-1827 0 6 -55 c9 -89 -16 -143 -68
-145 -33 -1 -58 -27 -58 -60 0 -16 -3 -30 -6 -30 -3 0 -21 28 -40 63 -18 34
-54 99 -80 144 l-46 83 -792 0 -793 0 0 -370z m1274 238 c29 -9 63 -35 118
-91 43 -43 94 -85 115 -93 20 -9 43 -23 51 -33 11 -14 12 -13 7 9 -4 14 -16
42 -26 64 -31 61 -15 52 20 -11 17 -32 60 -105 95 -163 184 -308 171 -279 169
-344 -1 -33 3 -68 8 -78 7 -14 6 -18 -5 -18 -8 0 -18 -5 -21 -10 -4 -7 12 -9
50 -5 65 6 79 0 202 -83 l83 -55 -38 -41 c-20 -23 -41 -40 -47 -39 -5 1 -50
13 -100 27 -49 14 -102 26 -117 26 -30 0 -78 19 -78 31 0 4 -14 10 -31 14 -17
4 -47 16 -66 27 -31 19 -33 22 -18 38 8 9 15 22 15 28 0 6 8 16 18 21 30 18 2
12 -37 -8 -20 -11 -55 -41 -77 -68 -74 -91 -122 -136 -138 -130 -9 4 -16 14
-16 24 0 21 -61 73 -85 73 -9 0 -31 14 -48 32 l-32 32 28 10 c15 5 27 13 27
17 0 22 -180 43 -210 24 -7 -5 -5 3 6 17 10 14 22 24 25 22 3 -2 19 10 35 27
36 38 28 52 -52 96 -60 32 -78 58 -50 69 27 10 18 33 -19 51 -20 10 -35 24
-35 34 0 10 -3 24 -6 33 -4 10 2 19 19 27 38 17 40 45 7 69 -15 11 -32 20 -38
20 -17 0 -31 26 -26 48 10 37 61 46 177 31 93 -11 116 -14 170 -18 10 0 21 -9
24 -18 8 -19 103 -114 185 -185 31 -26 72 -72 92 -102 20 -30 45 -58 56 -61
11 -4 20 -11 20 -16 0 -6 4 -7 10 -4 11 7 10 8 -53 128 -19 36 -135 148 -232
225 -5 4 -26 15 -45 25 -19 9 -53 32 -75 52 -22 19 -64 47 -92 63 -29 15 -53
31 -53 35 0 5 7 33 16 63 14 50 18 54 46 54 17 0 49 -6 72 -12z m4564 -234
c12 -2 22 -9 22 -15 0 -13 -59 -4 -105 16 -30 14 -30 14 15 9 25 -3 55 -7 68
-10z m-3844 -85 c33 -26 37 -94 6 -126 -10 -12 -22 -33 -26 -47 -3 -14 -10
-23 -15 -20 -5 3 -28 37 -51 77 -23 40 -48 76 -55 80 -19 11 -16 27 5 27 9 0
26 7 36 15 28 21 69 19 100 -6z m1162 -563 c86 -16 94 -20 94 -51 0 -53 -85
-95 -197 -95 -51 0 -66 4 -87 24 -34 31 -36 85 -3 106 49 33 90 36 193 16z
m-1040 -311 c-6 -16 -66 -21 -66 -5 0 5 10 18 21 29 19 17 23 18 36 5 8 -8 12
-21 9 -29z m22 -100 c11 -11 -9 -16 -37 -10 -42 9 -41 29 1 21 17 -3 34 -8 36
-11z m90 -31 c14 -4 22 -14 22 -28 -1 -20 -2 -20 -14 -3 -7 9 -18 17 -24 17
-6 0 -14 5 -17 10 -7 11 0 12 33 4z m-209 -425 c44 -13 76 -39 48 -39 -23 0
-104 36 -113 51 -5 9 -2 11 8 6 9 -3 34 -11 57 -18z m1506 -203 c19 -8 35 -20
35 -25 0 -16 -26 -13 -45 5 -23 23 -77 10 -122 -29 l-37 -32 19 32 c17 29 70
61 103 62 7 1 28 -6 47 -13z m23 -52 c37 -26 25 -36 -18 -14 -37 19 -41 19
-80 4 -22 -9 -49 -28 -60 -42 -24 -30 -26 -21 -4 14 34 51 116 70 162 38z m1
-38 c15 -8 33 -21 40 -30 10 -12 9 -14 -11 -9 -13 3 -31 12 -40 21 -25 21 -81
7 -125 -31 -25 -22 -33 -26 -26 -12 35 65 104 91 162 61z m27 -57 c19 -11 34
-25 34 -30 0 -11 -39 -2 -54 12 -28 26 -108 1 -148 -46 -10 -11 -17 -15 -18
-8 0 17 50 73 74 83 36 15 77 11 112 -11z m-2774 -388 c2 -6 23 -11 48 -12 69
-2 110 -10 110 -21 0 -6 -18 -8 -47 -4 -27 4 -67 9 -90 13 -27 3 -43 10 -43
19 0 16 17 19 22 5z m-324 -8 c-16 -2 -40 -2 -55 0 -16 2 -3 4 27 4 30 0 43
-2 28 -4z m115 -10 c-7 -2 -21 -2 -30 0 -10 3 -4 5 12 5 17 0 24 -2 18 -5z
m420 -10 c-7 -2 -19 -2 -25 0 -7 3 -2 5 12 5 14 0 19 -2 13 -5z m-363 -150 c0
-13 -13 -27 -48 -51 -29 -21 -33 -21 -39 -6 -9 24 10 48 43 55 43 10 44 10 44
2z m390 -68 c0 -17 -4 -23 -15 -19 -11 5 -12 10 -2 25 15 25 17 24 17 -6z
m309 -42 c8 -27 -1 -64 -12 -53 -6 6 -10 37 -8 69 1 30 9 24 20 -16z m147 3
c2 -11 6 -32 7 -45 1 -16 17 -33 52 -55 59 -39 122 -105 141 -152 18 -42 4
-87 -23 -77 -26 9 -53 34 -53 50 0 7 -4 13 -10 13 -5 0 -10 6 -10 13 0 16 -81
107 -95 107 -19 0 -57 127 -48 160 6 24 31 15 39 -14z m-296 -1 c0 -8 -4 -15
-10 -15 -5 0 -10 7 -10 15 0 8 5 15 10 15 6 0 10 -7 10 -15z m-660 -15 c-12
-23 -30 -27 -30 -7 0 17 10 27 27 27 11 0 11 -5 3 -20z m477 -32 c-3 -7 -5 -2
-5 12 0 14 2 19 5 13 2 -7 2 -19 0 -25z m-135 -10 c-8 -8 -9 -4 -5 13 4 13 8
18 11 10 2 -7 -1 -18 -6 -23z m324 -37 c13 -50 21 -62 44 -70 38 -13 55 -43
69 -118 16 -86 -1 -119 -48 -93 -14 7 -23 35 -36 104 -10 60 -22 96 -31 100
-8 3 -14 12 -14 21 0 22 -28 18 -35 -5 -8 -24 -25 -17 -25 10 0 10 -5 20 -11
22 -8 3 -9 15 -4 38 l7 33 19 -24 18 -24 7 33 c4 17 10 32 15 32 4 0 15 -27
25 -59z m197 -31 c7 -9 16 -24 20 -33 3 -9 10 -17 14 -16 25 4 37 -7 59 -56
30 -70 33 -145 5 -145 -15 0 -19 -10 -24 -52 -7 -70 -21 -99 -63 -128 -40 -26
-66 -20 -72 18 -5 32 61 122 89 122 5 0 9 9 9 20 0 11 5 20 10 20 7 0 7 6 0
19 -5 11 -10 34 -10 51 0 18 -11 45 -24 63 -14 18 -28 44 -31 60 -4 15 -11 30
-16 33 -5 3 -9 22 -9 42 1 35 1 36 16 17 8 -11 20 -27 27 -35z m821 -62 c5
-21 3 -28 -9 -28 -16 0 -19 17 -9 45 8 19 9 18 18 -17z m-1104 -333 c0 -9 -9
-15 -21 -15 -18 0 -19 2 -9 15 7 8 16 15 21 15 5 0 9 -7 9 -15z m-60 -5 c0 -5
-4 -10 -10 -10 -5 0 -10 5 -10 10 0 6 5 10 10 10 6 0 10 -4 10 -10z m990 -25
c0 -8 -4 -15 -10 -15 -5 0 -10 7 -10 15 0 8 5 15 10 15 6 0 10 -7 10 -15z
m-324 -41 c2 -18 -2 -36 -9 -42 -14 -12 -96 -37 -115 -35 -7 0 -25 -16 -40
-36 -15 -20 -30 -37 -34 -39 -5 -2 -8 -16 -8 -30 0 -15 -4 -43 -9 -62 -6 -19
-15 -55 -21 -78 -9 -36 -15 -43 -31 -39 -11 3 -19 0 -19 -8 0 -16 -72 -26 -83
-11 -4 6 -5 47 -2 91 7 95 37 146 106 183 24 13 62 38 84 57 21 19 49 35 60
35 12 0 37 11 55 25 43 32 62 29 66 -11z m486 -39 c3 -37 1 -40 -24 -40 -20
-1 -28 4 -28 17 0 11 -5 15 -14 12 -21 -8 -27 10 -13 40 14 31 27 34 27 6 0
-11 5 -20 11 -20 6 0 8 7 5 16 -3 9 -3 20 0 26 11 18 33 -16 36 -57z m-1320
-37 c-15 -15 -16 -54 -2 -63 6 -3 10 -21 10 -40 0 -19 -4 -37 -10 -40 -5 -3
-10 -21 -10 -39 0 -20 -8 -40 -20 -51 -20 -18 -21 -18 -41 2 -29 29 -36 102
-15 147 9 19 16 40 16 47 0 17 30 49 47 49 7 0 13 5 13 12 0 9 3 9 12 0 9 -9
9 -15 0 -24z m349 -18 c25 -14 27 -62 2 -58 -32 5 -71 -31 -88 -81 -28 -84
-80 -117 -121 -77 -16 17 -30 126 -16 126 6 0 13 9 17 20 8 24 55 46 118 55
26 3 47 10 47 16 0 12 17 12 41 -1z m4774 -240 c3 -5 1 -10 -4 -10 -6 0 -11 5
-11 10 0 6 2 10 4 10 3 0 8 -4 11 -10z m-60 -20 c-3 -5 -13 -10 -21 -10 -8 0
-14 5 -14 10 0 6 9 10 21 10 11 0 17 -4 14 -10z"/>
<path d="M1397 3114 c7 -19 41 -37 53 -29 13 8 -8 30 -37 37 -16 4 -20 2 -16
-8z"/>
<path d="M5630 4071 c14 -9 144 -53 300 -102 69 -22 171 -31 185 -17 6 6 -8
22 -77 96 l-31 32 -196 0 c-117 0 -190 -4 -181 -9z"/>
<path d="M4115 3148 c3 -110 3 -113 31 -135 28 -22 94 -32 94 -15 0 5 10 14
23 19 21 10 23 15 17 66 -9 88 -83 177 -146 177 -20 0 -21 -4 -19 -112z"/>
<path d="M2350 2990 c0 -17 48 -42 92 -48 42 -5 42 -5 24 14 -11 10 -38 25
-60 31 -50 15 -56 16 -56 3z"/>
<path d="M2626 2163 c-3 -4 -6 -15 -6 -25 0 -10 -5 -18 -11 -18 -5 0 -7 -5 -4
-10 5 -8 12 -7 22 2 8 6 22 13 30 14 8 2 16 4 18 6 6 6 -43 37 -49 31z"/>
<path d="M6106 2132 c-2 -4 -1 -14 5 -22 7 -12 9 -10 9 8 0 23 -5 28 -14 14z"/>
<path d="M2760 1843 c1 -16 50 -68 50 -53 0 35 -13 60 -31 60 -11 0 -19 -3
-19 -7z"/>
<path d="M2957 1254 c-8 -8 1 -24 14 -24 5 0 9 7 9 15 0 15 -12 20 -23 9z"/>
<path d="M2842 1170 c0 -14 2 -19 5 -12 2 6 2 18 0 25 -3 6 -5 1 -5 -13z"/>
<path d="M2970 1154 c0 -32 3 -36 21 -31 16 4 18 3 9 -8 -7 -8 -7 -16 -2 -19
16 -10 22 36 6 51 -8 8 -14 21 -14 29 0 8 -4 14 -10 14 -5 0 -10 -16 -10 -36z"/>
<path d="M4208 1140 c-16 -18 -16 -19 4 -26 23 -7 54 18 44 35 -10 16 -28 12
-48 -9z"/>
<path d="M2502 1090 c9 -26 13 -30 16 -16 2 10 -3 26 -12 35 -15 15 -16 13 -4
-19z"/>
<path d="M2586 1086 c-5 -26 -2 -40 11 -55 19 -22 48 -28 58 -11 4 6 17 3 33
-9 25 -17 30 -18 55 -5 24 13 38 43 20 45 -5 0 -23 2 -42 5 -19 2 -39 0 -46
-6 -15 -13 -65 28 -65 53 0 31 -18 18 -24 -17z"/>
<path d="M2385 1060 c-15 -17 -16 -20 -3 -20 9 0 19 7 22 16 10 25 1 27 -19 4z"/>
<path d="M2848 1058 c-3 -15 -1 -32 3 -40 13 -20 23 19 12 45 -10 21 -10 21
-15 -5z"/>
<path d="M4976 983 c-3 -3 -6 -15 -6 -25 0 -11 -4 -17 -9 -13 -12 7 -24 -12
-16 -25 11 -17 55 11 55 36 0 24 -13 38 -24 27z"/>
<path d="M3032 935 c0 -16 2 -22 5 -12 2 9 2 23 0 30 -3 6 -5 -1 -5 -18z"/>
<path d="M5268 895 c-9 -19 -9 -28 0 -37 9 -9 12 -8 12 5 0 9 7 17 16 17 8 0
22 6 29 14 12 12 11 15 -8 20 -34 9 -37 8 -49 -19z"/>
<path d="M4350 897 c0 -15 54 -67 69 -67 6 0 6 12 0 30 -6 16 -15 27 -20 24
-5 -3 -12 2 -15 10 -7 19 -34 21 -34 3z"/>
<path d="M3020 871 c0 -6 5 -13 10 -16 6 -3 10 1 10 9 0 9 -4 16 -10 16 -5 0
-10 -4 -10 -9z"/>
<path d="M4820 751 c0 -6 5 -13 10 -16 6 -3 10 1 10 9 0 9 -4 16 -10 16 -5 0
-10 -4 -10 -9z"/>
<path d="M4825 710 c3 -5 10 -10 16 -10 5 0 9 5 9 10 0 6 -7 10 -16 10 -8 0
-12 -4 -9 -10z"/>
<path d="M4510 651 c0 -24 21 -61 34 -61 8 0 23 -11 34 -25 32 -41 34 -22 6
58 -4 9 -15 17 -25 17 -11 0 -19 5 -19 10 0 6 -7 10 -15 10 -8 0 -15 -4 -15
-9z"/>
<path d="M3734 639 c-11 -19 13 -34 31 -19 13 11 13 15 3 21 -18 12 -26 11
-34 -2z"/>
<path d="M2443 600 c0 -25 2 -35 4 -22 2 12 2 32 0 45 -2 12 -4 2 -4 -23z"/>
<path d="M3778 546 c-10 -7 -18 -23 -18 -35 0 -23 7 -34 53 -83 15 -16 27 -36
27 -44 0 -18 29 -19 36 -1 2 7 24 22 48 32 36 16 45 26 49 49 7 48 -1 64 -29
58 -14 -2 -24 0 -24 7 0 16 -37 14 -64 -5 -28 -17 -46 -3 -26 21 10 12 8 15
-11 15 -13 0 -32 -7 -41 -14z"/>
<path d="M2435 538 c-4 -10 -4 -26 0 -35 8 -17 8 -17 12 0 3 9 3 25 0 35 -4
16 -4 16 -12 0z"/>
<path d="M4060 323 c-14 -2 -29 -10 -35 -17 -23 -29 -63 -48 -82 -37 -15 7
-22 5 -31 -10 -15 -23 -16 -56 -2 -64 6 -3 10 -19 10 -36 0 -16 4 -29 8 -29 5
0 19 -29 31 -65 l23 -65 176 0 175 0 -46 44 c-26 24 -47 50 -47 58 0 7 -9 19
-20 26 -13 8 -20 23 -20 42 0 17 -4 30 -10 30 -5 0 -7 7 -4 15 4 8 -1 17 -10
21 -9 3 -16 12 -16 18 0 21 -25 66 -37 66 -6 0 -17 2 -25 4 -7 2 -24 1 -38 -1z"/>
</g>
</svg>
